# Blender v2.74 (sub 0) OBJ File: ''
# www.blender.org
mtllib untitled-scene.mtl
o Icosahedron
v -0.086545 -0.923707 0.250963
v 0.013769 -0.923707 -0.265109
v -0.013769 -0.076293 0.265109
v 0.086545 -0.076293 -0.250963
v -0.393433 -0.201065 -0.076476
v -0.438411 -0.724796 -0.085219
v 0.438411 -0.275204 0.085219
v 0.393433 -0.798935 0.076476
v 0.338210 -0.522910 -0.367545
v -0.175898 -0.477090 -0.467477
v 0.175898 -0.522910 0.467477
v -0.338210 -0.477090 0.367545
vt 0.588104 0.500000
vt 0.750000 0.676208
vt 0.500000 0.823792
vt 1.000000 0.823792
vt 0.000000 0.823792
vt 0.250000 0.676208
vt 0.411896 0.500000
vt 0.911896 0.500000
vt 0.750000 0.323792
vt 0.500000 0.176208
vt 0.250000 0.323792
vt 0.088104 0.500000
vt 1.000000 0.176208
vt 0.000000 0.176208
vt 1.088104 0.500000
vn -0.724100 -0.524800 0.447400
vn -0.428900 -0.899500 -0.083400
vn 0.269000 -0.961700 0.052300
vn 0.405000 -0.625500 0.666900
vn -0.208800 -0.355500 0.911100
vn -0.503800 -0.524800 -0.686100
vn -0.981600 0.081400 0.172700
vn -0.147700 0.355500 0.922900
vn 0.845400 -0.081400 0.527800
vn 0.625400 -0.625500 -0.466600
vn -0.405000 0.625500 -0.666900
vn -0.269000 0.961700 -0.052300
vn 0.428900 0.899500 0.083400
vn 0.724100 0.524800 -0.447400
vn 0.208800 0.355500 -0.911100
vn -0.845400 0.081400 -0.527800
vn -0.625400 0.625500 0.466600
vn 0.503800 0.524800 0.686100
vn 0.981600 -0.081400 -0.172700
vn 0.147700 -0.355500 -0.922900
usemtl b0b0b0
s 1
f 12/1/1 6/2/1 1/3/1
f 6/2/2 2/4/2 1/3/2
f 2/5/3 8/6/3 1/3/3
f 8/6/4 11/7/4 1/3/4
f 11/7/5 12/1/5 1/3/5
f 6/2/6 10/8/6 2/4/6
f 12/1/7 5/9/7 6/2/7
f 11/7/8 3/10/8 12/1/8
f 8/6/9 7/11/9 11/7/9
f 2/5/10 9/12/10 8/6/10
f 10/8/11 5/9/11 4/13/11
f 5/9/12 3/10/12 4/13/12
f 3/10/13 7/11/13 4/14/13
f 7/11/14 9/12/14 4/14/14
f 9/15/15 10/8/15 4/13/15
f 10/8/16 6/2/16 5/9/16
f 5/9/17 12/1/17 3/10/17
f 3/10/18 11/7/18 7/11/18
f 7/11/19 8/6/19 9/12/19
f 9/15/20 2/4/20 10/8/20
